<svg width="96" height="101" viewBox="0 0 96 101" fill="none" xmlns="http://www.w3.org/2000/svg">
<path opacity="0.253397" fill-rule="evenodd" clip-rule="evenodd" d="M20.3638 80.9864C20.3638 80.9864 20.65 79.4055 21.6139 81.1133L20.3638 80.9864ZM82.0055 31.6898C82.9564 32.3807 84.0931 33.1583 85.4426 34.0326C94.3077 39.7764 92.7989 47.3838 91.2449 55.2195C90.1387 60.7973 89.0096 66.4908 91.5832 71.71C97.7722 84.261 96.457 89.4699 88.1538 93.4167C84.8759 94.9748 81.0187 93.618 77.0274 92.214C70.9084 90.0615 64.474 87.7981 59.3284 95.7574C50.8263 108.908 25.4274 92.6699 23.1812 85.2506C22.525 83.0831 22.0117 81.8181 21.6139 81.1133L61.6239 85.1753L81.938 66.7584L82.0055 31.6898ZM82.0055 31.6898C72.2636 24.6107 82.0153 26.6157 82.0153 26.6157L82.0055 31.6898Z" fill="url(#paint0_linear)"/>
<path opacity="0.518059" fill-rule="evenodd" clip-rule="evenodd" d="M80.5925 41.9155C80.5925 41.9155 79.7084 41.8641 80.5777 41.2132L80.5925 41.9155ZM82.7355 40.0626C81.594 40.5739 80.9365 40.9446 80.5777 41.2132L80.1042 18.7366L68.6603 8.71574L50.515 3.00744C50.515 3.00744 43.1149 14.0419 47.4714 4.95339C49.9337 -0.183339 54.9788 1.24048 60.065 2.6759C63.9779 3.7802 67.9151 4.89137 70.7193 3.02747C77.1686 -1.2592 80.1068 -0.883221 82.8254 3.45598C83.8987 5.16897 83.4163 7.40139 82.9171 9.71144C82.1518 13.253 81.3471 16.977 86.048 19.2916C93.8153 23.116 86.643 38.3123 82.7355 40.0626Z" fill="url(#paint1_linear)"/>
<circle cx="44.8541" cy="46.1939" r="39.8541" stroke="#FAA9C6" stroke-width="10"/>
<g filter="url(#filter0_d)">
<path d="M42.1566 6.43124C49.2976 5.94679 56.4373 7.39437 62.8257 10.6219C69.2141 13.8495 74.6155 18.7379 78.4624 24.7736C82.3093 30.8094 84.4597 37.7697 84.6879 44.9235C84.916 52.0774 83.2134 59.1606 79.7589 65.4292C76.3044 71.6978 71.2255 76.9204 65.0558 80.5485C58.886 84.1765 51.853 86.0761 44.6956 86.0476C37.5382 86.0192 30.5206 84.0638 24.3799 80.3868C18.2391 76.7098 13.2019 71.447 9.79737 65.1511" stroke="url(#paint2_linear)" stroke-width="10" stroke-linecap="round"/>
</g>
<defs>
<filter id="filter0_d" x="0.796387" y="1.33984" width="92.9117" height="97.7081" filterUnits="userSpaceOnUse" color-interpolation-filters="sRGB">
<feFlood flood-opacity="0" result="BackgroundImageFix"/>
<feColorMatrix in="SourceAlpha" type="matrix" values="0 0 0 0 0 0 0 0 0 0 0 0 0 0 0 0 0 0 127 0" result="hardAlpha"/>
<feOffset dy="4"/>
<feGaussianBlur stdDeviation="2"/>
<feColorMatrix type="matrix" values="0 0 0 0 0 0 0 0 0 0 0 0 0 0 0 0 0 0 0.25 0"/>
<feBlend mode="normal" in2="BackgroundImageFix" result="effect1_dropShadow"/>
<feBlend mode="normal" in="SourceGraphic" in2="effect1_dropShadow" result="shape"/>
</filter>
<linearGradient id="paint0_linear" x1="61.6603" y1="14.6454" x2="65.8175" y2="146.412" gradientUnits="userSpaceOnUse">
<stop stop-color="#FD749B"/>
<stop offset="1" stop-color="#281AC8"/>
</linearGradient>
<linearGradient id="paint1_linear" x1="69.9757" y1="-6.59781" x2="72.2591" y2="67.6597" gradientUnits="userSpaceOnUse">
<stop stop-color="#FD749B"/>
<stop offset="1" stop-color="#281AC8"/>
</linearGradient>
<linearGradient id="paint2_linear" x1="49.3395" y1="-12.7809" x2="54.4006" y2="146.135" gradientUnits="userSpaceOnUse">
<stop stop-color="#FD749B"/>
<stop offset="1" stop-color="#281AC8"/>
</linearGradient>
</defs>
</svg>
